# xmcd CD database file
# Copyright 1993-1996 (C) Ti Kan
#
# Track frame offsets:
#    182
#    12967
#    29497
#    48415
#    62772
#    76222
#    90960
#    104515
#    118995
#    129890
#
# Disc length: 1973 seconds
#
# Revision: 0
# Processed by: cddbd v1.4b41PL1 Copyright (c) Steve Scherf et al.
# Submitted via: MyCDplayer 2.3.1  (wjohn@fix.net)
#
DISCID=7907b30a
DTITLE=Randy Travis - 
DTITLE=Old 8x10
DYEAR=1900
DGENRE=
TTITLE0=Honky Tonk Moon
TTITLE1=Deeper Than The Holler
TTITLE2=It's Out Of My Hands
TTITLE3=Is It Still Over?
TTITLE4=Old 8x10
TTITLE5=Written In Stone
TTITLE6=The Blues In Black And White
TTITLE7=Here In My Heart
TTITLE8=We Ain't Out Of Love Yet
TTITLE9=Promises
EXTD=
EXTT0=
EXTT1=
EXTT2=
EXTT3=
EXTT4=
EXTT5=
EXTT6=
EXTT7=
EXTT8=
EXTT9=
PLAYORDER=
